<mxfile host="65bd71144e">
    <diagram id="6ObwSw7GGpYElaVP92g4" name="Page-1">
        <mxGraphModel dx="930" dy="793" grid="1" gridSize="10" guides="1" tooltips="1" connect="1" arrows="1" fold="1" page="1" pageScale="1" pageWidth="827" pageHeight="1169" background="#FFFDFD" math="0" shadow="0">
            <root>
                <mxCell id="0"/>
                <mxCell id="1" parent="0"/>
                <mxCell id="88" value="mdat" style="rounded=0;whiteSpace=wrap;html=1;strokeColor=#2D2926;fillColor=none;strokeWidth=4;fontFamily=Hack;labelBackgroundColor=none;labelPosition=center;verticalLabelPosition=bottom;align=center;verticalAlign=top;fontSize=27;fontStyle=0" parent="1" vertex="1">
                    <mxGeometry x="360" y="40" width="240" height="105" as="geometry"/>
                </mxCell>
                <mxCell id="18" value="" style="rounded=0;whiteSpace=wrap;html=1;labelPosition=center;verticalLabelPosition=top;align=center;verticalAlign=bottom;fillColor=#E4D5D3;strokeColor=none;fontFamily=Open Sans;labelBackgroundColor=none;" parent="1" vertex="1">
                    <mxGeometry x="365" y="45" width="10" height="95" as="geometry"/>
                </mxCell>
                <mxCell id="19" value="" style="rounded=0;whiteSpace=wrap;html=1;labelPosition=center;verticalLabelPosition=top;align=center;verticalAlign=bottom;strokeColor=none;fillColor=#E4D5D3;fontFamily=Open Sans;labelBackgroundColor=none;" parent="1" vertex="1">
                    <mxGeometry x="385" y="45" width="10" height="95" as="geometry"/>
                </mxCell>
                <mxCell id="20" value="" style="rounded=0;whiteSpace=wrap;html=1;labelPosition=center;verticalLabelPosition=top;align=center;verticalAlign=bottom;strokeColor=none;fillColor=#E4D5D3;fontFamily=Open Sans;labelBackgroundColor=none;" parent="1" vertex="1">
                    <mxGeometry x="405" y="45" width="10" height="95" as="geometry"/>
                </mxCell>
                <mxCell id="21" value="" style="rounded=0;whiteSpace=wrap;html=1;labelPosition=center;verticalLabelPosition=top;align=center;verticalAlign=bottom;strokeColor=none;fillColor=#E4D5D3;fontFamily=Open Sans;labelBackgroundColor=none;" parent="1" vertex="1">
                    <mxGeometry x="425" y="45" width="10" height="95" as="geometry"/>
                </mxCell>
                <mxCell id="22" value="" style="rounded=0;whiteSpace=wrap;html=1;labelPosition=center;verticalLabelPosition=top;align=center;verticalAlign=bottom;strokeColor=none;fillColor=#E4D5D3;fontFamily=Open Sans;labelBackgroundColor=none;" parent="1" vertex="1">
                    <mxGeometry x="445" y="45" width="10" height="95" as="geometry"/>
                </mxCell>
                <mxCell id="23" value="" style="rounded=0;whiteSpace=wrap;html=1;labelPosition=center;verticalLabelPosition=top;align=center;verticalAlign=bottom;strokeColor=none;fillColor=#E4D5D3;fontFamily=Open Sans;labelBackgroundColor=none;" parent="1" vertex="1">
                    <mxGeometry x="465" y="45" width="10" height="95" as="geometry"/>
                </mxCell>
                <mxCell id="24" value="" style="rounded=0;whiteSpace=wrap;html=1;labelPosition=center;verticalLabelPosition=top;align=center;verticalAlign=bottom;strokeColor=none;fillColor=#E4D5D3;fontFamily=Open Sans;labelBackgroundColor=none;" parent="1" vertex="1">
                    <mxGeometry x="485" y="45" width="10" height="95" as="geometry"/>
                </mxCell>
                <mxCell id="25" value="" style="rounded=0;whiteSpace=wrap;html=1;labelPosition=center;verticalLabelPosition=top;align=center;verticalAlign=bottom;strokeColor=none;fillColor=#E4D5D3;fontFamily=Open Sans;labelBackgroundColor=none;" parent="1" vertex="1">
                    <mxGeometry x="505" y="45" width="10" height="95" as="geometry"/>
                </mxCell>
                <mxCell id="26" value="" style="rounded=0;whiteSpace=wrap;html=1;labelPosition=center;verticalLabelPosition=top;align=center;verticalAlign=bottom;strokeColor=none;fillColor=#E4D5D3;fontFamily=Open Sans;labelBackgroundColor=none;" parent="1" vertex="1">
                    <mxGeometry x="525" y="45" width="10" height="95" as="geometry"/>
                </mxCell>
                <mxCell id="27" value="" style="rounded=0;whiteSpace=wrap;html=1;labelPosition=center;verticalLabelPosition=top;align=center;verticalAlign=bottom;strokeColor=none;fillColor=#E4D5D3;fontFamily=Open Sans;labelBackgroundColor=none;" parent="1" vertex="1">
                    <mxGeometry x="545" y="45" width="10" height="95" as="geometry"/>
                </mxCell>
                <mxCell id="28" value="" style="rounded=0;whiteSpace=wrap;html=1;labelPosition=center;verticalLabelPosition=top;align=center;verticalAlign=bottom;strokeColor=none;fillColor=#E4D5D3;fontFamily=Open Sans;labelBackgroundColor=none;" parent="1" vertex="1">
                    <mxGeometry x="565" y="45" width="10" height="95" as="geometry"/>
                </mxCell>
                <mxCell id="29" value="" style="rounded=0;whiteSpace=wrap;html=1;labelPosition=center;verticalLabelPosition=top;align=center;verticalAlign=bottom;strokeColor=none;fillColor=#E4D5D3;fontFamily=Open Sans;labelBackgroundColor=none;" parent="1" vertex="1">
                    <mxGeometry x="585" y="45" width="10" height="95" as="geometry"/>
                </mxCell>
                <mxCell id="92" value="moof" style="rounded=0;whiteSpace=wrap;html=1;strokeColor=#2D2926;fillColor=none;strokeWidth=4;fontFamily=Hack;labelBackgroundColor=none;labelPosition=center;verticalLabelPosition=bottom;align=center;verticalAlign=top;fontSize=27;fontStyle=0" parent="1" vertex="1">
                    <mxGeometry x="280" y="40" width="80" height="105" as="geometry"/>
                </mxCell>
                <mxCell id="93" value="prft" style="rounded=0;whiteSpace=wrap;html=1;strokeColor=#2D2926;fillColor=#9E918A;strokeWidth=4;fontFamily=Hack;labelBackgroundColor=none;labelPosition=center;verticalLabelPosition=bottom;align=center;verticalAlign=top;fontSize=27;fontStyle=0;gradientColor=none;shadow=0;glass=0;fillStyle=hatch;fontColor=#9E918A;" parent="1" vertex="1">
                    <mxGeometry x="120" y="40" width="80" height="105" as="geometry"/>
                </mxCell>
                <mxCell id="94" value="styp" style="rounded=0;whiteSpace=wrap;html=1;strokeColor=#2D2926;fillColor=#9E918A;strokeWidth=4;fontFamily=Hack;labelBackgroundColor=none;labelPosition=center;verticalLabelPosition=bottom;align=center;verticalAlign=top;fontSize=27;fontStyle=0;gradientColor=none;shadow=0;glass=0;fillStyle=hatch;fontColor=#9E918A;" parent="1" vertex="1">
                    <mxGeometry x="40" y="40" width="80" height="105" as="geometry"/>
                </mxCell>
                <mxCell id="95" value="emsg" style="rounded=0;whiteSpace=wrap;html=1;strokeColor=#2D2926;fillColor=#9E918A;strokeWidth=4;fontFamily=Hack;labelBackgroundColor=none;labelPosition=center;verticalLabelPosition=bottom;align=center;verticalAlign=top;fontSize=27;fontStyle=0;gradientColor=none;shadow=0;glass=0;fillStyle=hatch;fontColor=#9E918A;" vertex="1" parent="1">
                    <mxGeometry x="200" y="40" width="80" height="105" as="geometry"/>
                </mxCell>
            </root>
        </mxGraphModel>
    </diagram>
</mxfile>
